<svg width="146" height="25" viewBox="0 0 146 25" fill="none" xmlns="http://www.w3.org/2000/svg">
<g clip-path="url(#clip0)">
<path d="M110.884 0.686296V19.6463C110.884 20.8786 111.492 21.5115 112.732 21.5744C112.747 21.5756 118.98 21.5756 118.98 21.5756V23.7027C118.98 23.9402 118.851 24.1071 118.587 24.1071H108.473C105.348 24.1071 104.886 22.3869 104.886 20.8247V1.97511C104.886 1.08552 105.225 0.664473 106.276 0.68758L110.884 0.686296Z" fill="black"/>
<path d="M99.2277 0.686296L99.229 22.8722C99.229 23.8593 98.8105 24.1071 97.971 24.1071H93.2252V1.91093C93.2252 1.17923 93.5051 0.68758 94.5692 0.68758L99.2277 0.686296Z" fill="black"/>
<path d="M0 3.9154C0 2.1298 0.00385107 0.684378 2.93706 0.684378H15.8304V2.93852C15.8304 3.09898 15.7546 3.24404 15.53 3.24404L7.8035 3.24147C6.765 3.24147 6.24254 3.73954 6.24254 4.78702V10.7343H15.3336L15.3349 13.0963C15.3349 13.3055 15.2039 13.4159 14.9985 13.4159H6.24254V22.8523C6.22329 23.7624 5.76886 24.1244 4.77016 24.1064H0V3.9154Z" fill="black"/>
<path d="M25.1418 0.684093V18.5362C25.1418 20.069 25.3588 21.1434 26.4345 21.7647C27.8761 22.5991 30.3176 22.6119 31.7874 21.7878C32.7926 21.2268 33.1764 20.3257 33.1764 18.5414V1.87407C33.1764 1.1244 33.4626 0.684093 34.5101 0.684093H39.1763L39.1776 18.0087C39.1776 22.033 36.6436 23.6838 34.4036 24.2961C31.4229 25.1087 26.8953 25.1215 24.0828 24.2769C20.7221 23.2653 19.1522 21.2756 19.1483 18.0099L19.1458 1.8869C19.1458 1.10899 19.4256 0.684093 20.3203 0.684093H25.1418Z" fill="black"/>
<path d="M138.627 0.68758C137.443 0.68758 136.768 1.23956 136.501 2.29603L132.679 18.446L132.575 18.4435L128.628 0.68758H123.231C122.19 0.68758 121.863 1.22288 121.863 2.04957V24.1071H124.143C124.51 24.1071 124.661 23.9248 124.661 23.5512V5.05723H125.022L129.901 24.1071H133.096C134.3 24.1071 134.749 23.6128 135.045 22.4229L139.425 5.05723H139.779L139.778 24.1071L144.041 24.1006C145.087 24.1006 145.565 23.6988 145.565 22.6706V0.686296L138.627 0.68758Z" fill="black"/>
<path d="M67.6904 13.414H61.6905V24.1071H66.435C67.2707 24.1071 67.6917 23.8619 67.6917 22.8722C67.6917 22.8722 67.6904 18.2984 67.6904 13.414Z" fill="black"/>
<path d="M67.3412 8.84603C67.5517 8.6753 67.6749 8.54693 67.6904 8.1798V0.689517H63.0319C61.9831 0.689517 61.6917 1.20171 61.6917 1.93084V13.2709L67.3412 8.84603Z" fill="black"/>
<path d="M46.7715 22.2518C49.3774 21.8834 50.2439 20.3353 50.2439 18.0529V1.95556C50.2439 0.992804 50.765 0.680866 51.4377 0.680866H56.2438V15.9015C56.2438 19.6447 55.4556 21.5356 53.2387 23.1312C52.0847 23.9591 50.0667 24.9039 45.6945 24.9039C43.1913 24.9039 42.0784 24.7627 41.9282 24.7281C41.7164 24.6793 41.6304 24.5496 41.6304 24.3661V22.4008C42.6586 22.4303 45.0129 22.5022 46.7715 22.2518Z" fill="black"/>
<path d="M76.7797 0.68557C73.8491 0.68557 73.8478 2.13099 73.8478 3.9166V9.95118C73.8478 10.0757 73.7939 10.1258 73.7374 10.181L69.6335 13.4146H73.8478V24.1063H78.6154C79.6141 24.1256 80.0685 23.7623 80.0852 22.8535V13.4171H88.8412C89.0466 13.4171 89.1788 13.3054 89.1788 13.0975V10.7342H80.0852V4.78693C80.0852 3.74073 80.609 3.24138 81.6462 3.24138L89.3752 3.24395C89.5973 3.24395 89.6756 3.10017 89.6756 2.93971V0.68557H76.7797Z" fill="black"/>
</g>
<defs>
<clipPath id="clip0">
<rect width="145.564" height="24.2245" fill="white" transform="translate(0 0.683594)"/>
</clipPath>
</defs>
</svg>
