<svg width="102" height="30" viewBox="0 0 102 30" fill="none" xmlns="http://www.w3.org/2000/svg">
<path d="M24.1308 24.2225L17.1864 18.3495C17.1864 18.3495 16.2499 17.4295 15.196 17.4295C14.1246 17.4295 13.1872 18.3495 13.1872 18.3495L6.24379 24.2225L6.22729 24.206L12.0499 17.1947C12.0499 17.1947 12.9708 16.2417 12.9708 15.1704C12.9708 14.1 12.0499 13.1625 12.0499 13.1625L6.22729 6.13566L6.24379 6.11916L13.1882 12.0087C13.1882 12.0087 14.1246 12.9452 15.196 12.9452C16.2499 12.9452 17.1864 12.0087 17.1864 12.0087L24.1308 6.11819L24.1637 6.15216L18.3247 13.1625C18.3247 13.1625 17.4212 14.1165 17.4212 15.1713C17.4212 16.2417 18.3237 17.1947 18.3237 17.1947L24.1637 24.207L24.1308 24.2235V24.2225ZM27.3759 15.1704C27.3759 13.2635 27.4603 11.573 28.849 8.57823C29.2498 7.70873 30.1367 6.43649 28.8315 4.96435C27.7611 3.89397 26.5568 4.06088 25.7358 4.5461C26.2046 3.72608 26.3889 2.48878 25.3186 1.41743C23.8629 0.0957038 22.5917 0.999174 21.7377 1.40093C18.7759 2.80611 17.1029 2.88957 15.2125 2.88957C13.3221 2.88957 11.6316 2.80611 8.68733 1.40093C7.83335 0.999174 6.56209 0.0957038 5.10644 1.41743C4.03703 2.50431 4.21947 3.72705 4.68819 4.5461C3.86818 4.06088 2.64737 3.89397 1.59252 4.96435C0.271763 6.43649 1.17523 7.70873 1.57602 8.57823C2.9812 11.573 3.0666 13.28 3.0666 15.1704C3.0666 17.0782 2.98217 18.7842 1.57699 21.779C1.17523 22.6495 0.28923 23.9217 1.59349 25.3938C2.66484 26.4642 3.88564 26.2808 4.68916 25.8111C4.22044 26.6321 4.03703 27.8694 5.10741 28.9408C6.56306 30.28 7.83432 29.3755 8.6883 28.9573C11.6491 27.5521 13.3231 27.4686 15.2135 27.4686C17.1039 27.4686 18.7769 27.5356 21.7386 28.9573C22.5926 29.359 23.8639 30.2625 25.3195 28.9408C26.3899 27.8694 26.2055 26.6486 25.7368 25.8121C26.5578 26.2808 27.7621 26.4642 28.8325 25.3938C30.1542 23.9217 29.2507 22.633 28.85 21.78C27.4438 18.7842 27.3768 17.0782 27.3768 15.1713L27.3759 15.1704ZM50.0141 26.3808C52.3897 25.5268 55.3349 21.4287 54.8497 14.9695C54.381 8.72962 52.0219 3.82701 45.7471 3.35829C45.7471 3.35829 44.5593 3.27483 43.5558 3.27483C42.4845 3.27483 42.2671 3.22437 42.1837 4.37918C42.0497 6.53742 41.9993 23.3356 42.1497 25.7616C42.1672 26.0964 42.2002 26.899 43.5723 27.0329C46.0654 27.2677 48.1402 27.0669 50.0141 26.3808ZM47.588 2.28693C52.8914 2.27044 59.8853 5.93478 59.8688 15.1374C59.8523 23.1347 54.1297 28.0538 48.8592 28.0538H35.4576L35.4741 27.7695C36.2272 27.6355 37.0802 27.1678 37.2141 26.6486C37.6663 24.7242 37.5489 7.10609 37.282 4.21227C37.1976 3.30783 36.495 2.72266 35.6245 2.57224L35.5915 2.3044C35.5915 2.28693 46.3827 2.3044 47.588 2.28693ZM76.9522 21.7295C77.0522 16.1913 73.0365 14.7191 68.8879 14.5017C68.8035 14.5017 68.8365 14.2834 68.9035 14.2834C70.2592 14.2339 75.6295 13.5983 75.4121 8.41132C75.1948 3.35829 71.3965 3.24087 70.0078 3.22437C68.8705 3.20787 68.6366 3.20787 68.1514 3.24087C67.3479 3.27483 67.147 3.34179 67.147 4.2113C67.147 4.32775 66.9626 13.3139 66.8627 19.6382C66.8122 23.0677 66.7957 25.7112 66.7957 25.7112C66.8122 26.3478 66.7452 26.9824 68.2678 27.0504C69.8574 27.1338 71.8992 27.2008 73.3209 26.8825C74.6426 26.6146 76.8678 25.6442 76.9522 21.7295ZM75.3122 14.3009C81.5521 15.8565 81.9373 20.4243 81.8539 21.6955C81.5695 27.4017 76.7843 28.0538 74.8435 28.0538H60.1026L60.1201 27.7695C61.1905 27.619 61.993 27.0329 61.993 25.126L62.0775 5.48353C62.094 3.35829 61.5418 2.70519 60.388 2.55477L60.354 2.28693H71.4974C73.5382 2.28693 79.7121 1.86965 80.2313 7.5913C80.666 12.1756 75.68 14.1 75.3112 14.3009H75.3122ZM99.3556 2.37136H99.6059L99.6904 6.95567H99.405C98.9538 5.08177 97.1799 3.32432 93.6164 3.14091C89.3999 2.92354 87.5765 5.44957 87.56 7.85914C87.5425 11.0548 90.0025 11.7069 93.6494 12.6104C95.3729 13.0286 101.731 13.8816 101.228 21.1104C100.878 26.1634 96.5607 28.5555 90.4538 28.3721C90.4538 28.3721 87.9113 28.2886 84.3634 27.3007C83.7113 27.1164 83.5269 27.3347 83.2765 27.8199L82.9912 27.8364L83.0077 22.8843L83.292 22.9008C83.4259 23.4025 83.4764 24.34 84.3624 25.126C85.0155 25.7112 86.5556 27.1503 89.9346 27.1833C93.2477 27.2338 95.9911 25.8121 96.3589 22.0643C96.4598 21.0599 96.3589 18.7348 94.1172 17.6799C92.3607 16.8609 87.5086 16.3087 85.1659 14.2339C85.1659 14.2339 82.3711 12.2765 82.8068 8.5957C83.4259 3.40875 87.7094 2.12002 91.5572 2.03559C91.5572 2.03559 95.0042 2.0026 97.7485 2.72266C97.7485 2.72266 98.4181 2.90704 98.9693 2.68869C99.1702 2.60524 99.2876 2.45482 99.3546 2.37136H99.3556Z" fill="black"/>
</svg>
