<svg width="155" height="49" viewBox="0 0 155 49" fill="none" xmlns="http://www.w3.org/2000/svg">
<path fill-rule="evenodd" clip-rule="evenodd" d="M103.759 28.0071C109.531 27.9896 115.304 27.9799 121.076 28.0508C122.9 28.0954 124.886 28.5699 126.141 29.9751C127.121 31.0775 127.206 32.6234 127.281 34.0199C127.358 35.9743 126.61 38.1374 124.832 39.1748C124.555 39.2621 124.834 39.4261 124.949 39.4805C125.919 40.0268 126.649 40.9749 126.911 42.0511C127.44 44.0347 127.115 46.0978 127.173 48.1192C124.929 48.1115 122.683 48.1173 120.438 48.1144C120.263 46.4414 120.729 44.746 120.348 43.0876C120.154 42.4267 119.777 41.6601 119.04 41.4883C116.175 40.974 113.256 41.2709 110.367 41.2709C110.319 43.5514 110.361 45.8339 110.346 48.1163C108.149 48.1037 105.955 48.1047 103.759 48.1037V28.0061V28.0071ZM110.421 32.2197C110.309 33.7792 110.316 35.3445 110.405 36.9059C113.27 36.7351 116.167 37.1631 119.01 36.642C120.93 36.1519 120.882 32.9087 118.978 32.4303C116.138 32.0547 113.271 32.3527 110.421 32.2197ZM82.773 28.0216C85.9405 27.9867 89.1051 28.0216 92.2726 27.9974C92.8616 27.943 93.0547 28.5893 93.2653 29.0027C96.1077 35.3736 98.952 41.7416 101.815 48.1008C99.3402 48.0843 96.8685 48.1037 94.3959 48.0775C93.9107 46.813 93.3789 45.569 92.8267 44.3336C89.3642 44.3336 85.9027 44.3336 82.4392 44.322C81.8113 45.5486 81.2902 46.8257 80.7507 48.0901C78.4265 48.1076 76.1003 48.0989 73.7752 48.0833C76.7971 41.4068 79.7967 34.7186 82.773 28.0216ZM87.5941 31.9315C86.451 34.5323 85.3903 37.1679 84.2364 39.7648C86.4626 39.7833 88.6868 39.7842 90.913 39.7648C89.8154 37.1495 88.7101 34.5371 87.5941 31.9315ZM52.2705 29.1726C53.7106 28.2332 55.4855 28.0042 57.1741 28.0168C62.2174 28.0168 67.2636 27.976 72.3069 28.0042C72.2778 29.4191 72.3021 30.8359 72.2924 32.2527C67.7702 32.2624 63.247 32.1945 58.7258 32.3245C57.0615 32.3983 56.7927 35.2048 58.3958 35.6085C62.2378 36.314 66.2437 35.2009 70.0264 36.3615C71.2977 36.6934 72.3167 37.6687 72.8601 38.8342C73.5578 40.2461 73.5831 41.8784 73.3502 43.4049C73.1561 44.55 72.6893 45.7165 71.7587 46.4705C70.3758 47.6447 68.498 48.0387 66.7163 48.0804C61.3692 48.1037 56.0222 48.1454 50.677 48.0503C50.7158 46.6325 50.7032 45.2138 50.6518 43.7969C55.2254 43.6019 59.8078 43.8387 64.3824 43.6689C64.7851 43.6485 65.2247 43.6669 65.5702 43.4224C66.6183 42.6848 66.5067 40.7498 65.2733 40.2588C64.3184 40.0152 63.3188 40.0385 62.3397 39.9997C59.3042 39.9511 56.1658 40.3548 53.2351 39.3592C51.4738 38.7769 50.4296 36.9913 50.185 35.2494C50.0317 33.9548 50.1326 32.6118 50.5499 31.3745C50.8507 30.472 51.4524 29.6723 52.2714 29.1716L52.2705 29.1726ZM29.4042 28.4011C30.792 28.0119 32.2495 28.0226 33.679 27.9896C38.3409 27.9925 43.0019 28.0061 47.6629 28.0061C47.6677 29.421 47.6629 30.8339 47.6658 32.2498C43.5764 32.2595 39.4889 32.2479 35.3995 32.2547C34.6513 32.2809 33.808 32.2721 33.2054 32.7787C32.2864 33.6715 32.8095 35.5638 34.1399 35.721C37.7363 36.1179 41.4026 35.4105 44.9651 36.1985C45.9928 36.3984 46.9283 36.968 47.5988 37.7599C48.7517 39.1301 49.1117 41.0147 48.94 42.7557C48.7536 44.2307 48.2024 45.7922 46.9477 46.7024C45.4881 47.7796 43.6016 48.0513 41.8277 48.0921C36.599 48.095 31.3723 48.1047 26.1436 48.1144C26.1436 46.651 26.1242 45.1876 26.1339 43.7242C30.8958 43.7067 35.6587 43.7999 40.4176 43.6446C41.4308 43.5417 41.9257 42.3665 41.7112 41.4737C41.5928 40.7779 41.0018 40.1831 40.275 40.1384C36.9784 39.7716 33.6372 40.3199 30.3523 39.793C29.4304 39.6416 28.4736 39.4397 27.7254 38.8497C26.427 37.9152 25.7205 36.3596 25.5594 34.8098C25.3585 33.065 25.7806 31.1901 26.9607 29.847C27.5895 29.1153 28.4804 28.6534 29.4042 28.4011ZM0.398083 27.9867C7.76365 27.9916 15.1273 28.0042 22.4899 28.0178C22.5142 29.4268 22.5287 30.8359 22.489 32.243C17.2865 32.245 12.0821 32.2576 6.87861 32.2547C6.8757 33.49 6.866 34.7263 6.86212 35.9617C12.083 35.9646 17.3059 35.9636 22.5278 35.9636C22.5365 37.2902 22.5054 38.6197 22.5122 39.9473C17.301 39.957 12.0898 39.9492 6.88056 39.9521C6.8757 41.2253 6.85824 42.5005 6.85824 43.7746C12.0821 43.7911 17.3059 43.7911 22.5297 43.8067C22.5297 45.2361 22.5316 46.6655 22.5297 48.094H0.380615C0.396142 41.3922 0.39226 34.6895 0.399053 27.9867H0.398083ZM141.512 15.2653C145.9 15.3158 150.287 15.2983 154.674 15.3168C152.823 17.1664 150.973 19.017 149.116 20.8637C148.723 21.2277 148.302 21.6857 147.713 21.6566C145.614 21.7012 143.515 21.6741 141.418 21.6585C141.4 19.5275 141.35 17.3915 141.512 15.2653ZM133.773 7.04871C135.783 4.84195 137.952 2.78852 140.079 0.693359C140.085 5.11949 140.096 9.54562 140.079 13.9718C137.893 13.9456 135.707 13.9281 133.523 13.9329C133.507 11.796 133.5 9.66013 133.494 7.52325C133.462 7.31751 133.668 7.19621 133.773 7.04871ZM133.465 22.7736C135.625 20.5387 137.848 18.3659 140.058 16.1843C140.095 20.6997 140.088 25.2171 140.111 29.7335C137.927 31.9296 135.749 34.1266 133.522 36.2761C133.497 31.7743 133.53 27.2754 133.466 22.7736H133.465ZM125.48 15.3051C130.017 15.309 134.553 15.2935 139.091 15.308C137.03 17.4236 134.87 19.444 132.859 21.6081C128.246 21.7148 123.63 21.676 119.019 21.6595C121.089 19.4615 123.249 17.344 125.48 15.3051Z" fill="black"/>
</svg>
