<svg width="174" height="46" viewBox="0 0 174 46" fill="none" xmlns="http://www.w3.org/2000/svg">
<mask id="mask0" mask-type="alpha" maskUnits="userSpaceOnUse" x="0" y="0" width="174" height="46">
<path d="M0.573242 0.0117188H173.31V45.6219H0.573242V0.0117188Z" fill="white"/>
</mask>
<g mask="url(#mask0)">
<path fill-rule="evenodd" clip-rule="evenodd" d="M27.7608 13.1125C27.7608 13.4095 27.755 14.048 27.7472 14.3401C26.4566 12.0538 23.9461 10.7388 21.3482 10.7388C17.5567 10.7388 14.0923 14.082 14.0923 18.5023C14.0923 22.8498 17.5694 25.9862 21.4685 25.9862C22.536 25.9862 23.6035 25.7504 24.5797 25.2749C24.1605 25.9193 23.6918 26.5326 23.1668 27.0935C22.9319 27.3458 22.6884 27.6622 22.3633 27.7825C21.9926 27.9184 21.2162 28.2318 19.8314 28.2318C15.1976 28.2318 12.0447 24.7751 10.5667 22.5519C9.09265 20.3354 7.82041 17.3649 7.82041 14.1868C7.82041 7.84794 13.0588 4.58147 18.8086 4.58147C25.0679 4.58147 27.7608 9.58889 27.7608 13.1125ZM22.0343 12.8408C18.5679 12.8408 15.6838 15.4386 15.6838 18.8982C15.6838 22.1045 18.2923 25.1478 22.1013 25.1478C22.9814 25.1478 23.8587 24.9498 24.6632 24.583C24.801 24.5199 24.9815 24.4607 25.0999 24.3656C25.1969 24.2861 25.2435 24.1473 25.3085 24.0357C26.3246 22.3229 27.4629 18.4004 27.6269 16.2024C27.6434 15.9763 27.5813 15.8947 27.4474 15.7133C26.5478 14.4876 24.7971 12.8408 22.0343 12.8408ZM20.8154 0.846288C19.6412 0.26209 17.8236 0.0117188 16.071 0.0117188C8.13289 0.0117188 0.573242 4.51451 0.573242 12.0984C0.573242 14.7768 1.41752 17.6405 2.89451 20.2064C4.56171 23.1079 6.87521 25.7601 9.63609 27.6447C11.7332 29.0761 14.1593 30.0756 16.6669 30.0756C18.7542 30.0756 20.1565 29.4992 20.6427 29.0965C20.4321 29.1295 19.9275 29.2052 19.3035 29.2052C12.7065 29.2052 8.21732 23.2952 6.53556 19.003C5.88732 17.3494 5.40501 15.361 5.40501 13.3881C5.40598 5.31318 12.5891 0.881224 19.6053 0.881224C19.9983 0.881224 20.3933 0.893839 20.7912 0.921012C20.8213 0.922952 20.8407 0.904514 20.8407 0.883165C20.8407 0.869579 20.8329 0.855022 20.8154 0.844348V0.846288ZM37.2555 15.7696L41.7486 13.7317V21.2797C42.9209 20.908 43.8467 20.5373 46.1932 20.5373C51.2821 20.5373 53.7538 23.2642 53.7538 29.4711C53.7538 36.7435 50.9162 38.3825 44.3959 38.3825C41.2779 38.3825 38.5966 37.842 37.2555 37.2355V15.7696ZM44.7356 34.7153C48.2301 34.7153 49.3024 32.7191 49.3024 29.4711C49.3024 26.3201 48.1816 24.3181 44.7356 24.3181C43.7302 24.3181 42.8199 24.518 41.7476 24.8557V34.1776C42.5269 34.4348 43.6341 34.7153 44.7365 34.7153H44.7356ZM62.6982 38.365C57.0348 38.365 55.4423 36.5795 55.4423 32.8831C55.4423 29.112 57.0824 27.4273 62.5498 27.4273C64.2694 27.4273 65.8783 27.6864 66.3878 27.7563V26.6306C66.3878 25.2739 65.6745 24.2822 62.0849 24.2822C59.2319 24.2822 57.6209 25.0983 57.0581 25.3196L56.7126 21.8115C57.4531 21.5174 59.8199 20.5373 63.3601 20.5373C68.6838 20.5373 70.813 22.8217 70.813 27.2187V37.0705C69.5388 37.645 66.2636 38.365 62.6992 38.365H62.6982ZM66.3878 30.8491C65.5804 30.72 64.0879 30.5017 62.8506 30.5017C59.9374 30.5017 59.6918 31.7147 59.6918 32.7744C59.6918 34.4921 60.4662 35.1258 62.967 35.1258C64.6003 35.1258 65.7832 34.8637 66.3878 34.6949V30.8491ZM124.568 38.1564C126.356 38.1564 127.517 37.8779 127.71 37.8294L127.91 34.3533C127.756 34.4183 126.89 34.6609 126.338 34.6609C124.274 34.6609 123.62 33.1849 123.62 31.2285V25.0245H128.421V21.005H123.62V17.3892L119.18 19.4271V32.4988C119.18 36.3844 121.195 38.1564 124.568 38.1564ZM78.3949 37.9439V30.4881H79.4624L84.8891 37.9439H89.9178L82.9404 28.095L89.2909 21.005H84.3805L79.3498 26.7102H78.3949V13.7317L73.9018 15.7696V37.9439H78.3949ZM98.6206 34.6046C101.147 34.6046 102.711 34.0447 103.491 33.8031L103.928 37.1763C103.272 37.48 101.123 38.3825 98.3382 38.3825C92.2372 38.3825 89.0716 35.2354 89.0716 29.1634C89.0716 23.0226 92.0993 20.5373 97.3241 20.5373C103.021 20.5373 104.834 23.7086 104.834 29.0722C104.834 29.6448 104.799 30.4551 104.732 30.7578H93.5647C93.5647 33.8196 95.8064 34.6046 98.6206 34.6046ZM100.676 27.5884V27.2158C100.676 24.9236 99.6668 23.8775 97.2096 23.8775C94.6962 23.8775 93.6976 25.2604 93.6317 27.5875H100.677L100.676 27.5884ZM133.189 18.9982C131.814 18.9982 130.775 18.4586 130.775 16.5013C130.775 14.7147 131.714 13.9714 133.189 13.9714C134.697 13.9714 135.67 14.5458 135.67 16.4683C135.67 18.3237 134.764 18.9982 133.189 18.9982ZM130.977 37.9439V20.9827L135.469 21.006V37.9449H130.976L130.977 37.9439ZM147.092 37.9371L147.252 34.5115C147.075 34.5503 146.591 34.6599 146.135 34.6599C144.611 34.6599 144.163 33.6653 144.163 32.3018V13.7317L139.67 15.7696V33.1732C139.67 35.6673 140.902 38.1574 144.458 38.1574C145.869 38.1574 146.91 37.9711 147.092 37.9371ZM156.327 37.9371L156.488 34.5115C156.312 34.5503 155.827 34.6599 155.37 34.6599C153.849 34.6599 153.399 33.6653 153.399 32.3018V13.7317L148.906 15.7696V33.1732C148.906 35.6673 150.138 38.1574 153.694 38.1574C155.105 38.1574 156.147 37.9711 156.327 37.9371ZM111.814 37.9439V24.8208C112.316 24.6529 113.557 24.4501 114.966 24.4501C115.703 24.4501 116.872 24.5063 117.475 24.5733V20.7459C117.006 20.611 115.736 20.5712 114.564 20.5712C111.613 20.5712 108.797 21.3476 107.322 22.056V37.9439H111.815H111.814ZM157.956 45.6219C158.104 45.6219 158.926 45.4832 159.142 45.4502C163.182 44.8271 166.141 43.0309 167.772 38.07C168.882 34.6929 173.31 21.005 173.31 21.005H168.61L164.85 33.9302H164.095L161.25 21.005H156.367L161.124 37.9546H163.687C163.687 37.9546 163.585 38.2923 163.507 38.5582C162.96 40.4456 160.048 41.7218 157.352 42.0779L157.956 45.6219Z" fill="black"/>
</g>
</svg>
