<svg width="165" height="43" viewBox="0 0 165 43" fill="none" xmlns="http://www.w3.org/2000/svg">
<path fill-rule="evenodd" clip-rule="evenodd" d="M42.0963 0.84375H0V35.7259C1.7031 32.1915 4.03019 28.9901 6.81436 26.2467C9.59852 23.5023 12.8407 21.216 16.3314 19.5109C12.8407 22.1311 9.80716 25.3733 7.43834 29.0318C4.7784 33.2318 3.03356 38.0122 2.40958 42.9604H4.90261C5.5266 37.5551 7.43834 32.3167 10.4302 27.7848C12.7573 24.2922 15.7491 21.2577 19.1563 18.8462C21.858 16.9752 24.809 15.4788 27.8834 14.356C27.3855 14.6889 26.845 15.0208 26.3462 15.3536C22.7721 17.7234 19.5318 20.7172 17.0796 24.2515C16.3314 25.2074 15.7083 26.2884 15.1261 27.3695C12.5079 32.1091 11.0949 37.5551 10.9707 42.9604C13.5055 42.9177 16.082 43.0012 18.6167 42.9177C18.9903 42.9604 19.4067 42.9177 19.822 42.9177H42.0138C42.0963 28.9066 42.0963 14.8965 42.0963 0.84375V0.84375ZM37.6498 16.7258C36.1534 16.0193 34.6579 15.3536 33.1615 14.6471C33.0373 14.5637 32.9539 14.7723 32.8296 14.8131C31.7903 15.9776 30.7102 17.1411 29.6709 18.3057C29.8786 16.6423 30.0862 14.979 30.2522 13.3167C28.715 12.651 27.1769 11.9445 25.6815 11.2798C27.3021 10.9469 28.9644 10.614 30.585 10.3239C30.7927 8.66056 30.9587 6.99725 31.1256 5.2922C31.9563 6.74688 32.7462 8.20252 33.5778 9.69892C35.1985 9.36704 36.8608 8.99245 38.4805 8.66056C37.3586 9.90757 36.1951 11.1128 35.0733 12.3181C35.9467 13.8155 36.7774 15.2702 37.6498 16.7258ZM73.3664 28.2652C74.1214 27.7315 75.0647 27.5024 75.9711 27.5791C76.7639 27.6179 77.6324 27.8071 78.1982 28.4185C78.7271 28.9523 78.9163 29.715 78.9163 30.4399V34.8263C78.9163 35.4357 78.9163 36.0461 79.0667 36.6177C79.5568 36.771 80.0857 36.8089 80.5767 36.8089V37.2281C79.7839 37.6483 78.8406 37.9908 77.9342 37.724C77.3297 37.5338 77.1414 36.8089 77.0667 36.2373C76.5756 36.9612 75.8575 37.4959 75.0268 37.724C74.1214 37.953 73.0646 37.9142 72.2718 37.3814C71.4042 36.8089 71.1024 35.5881 71.4421 34.6351C71.7439 33.8335 72.5367 33.3764 73.2539 33.0708C74.4989 32.5758 75.7828 32.308 77.0677 31.9266C77.0288 30.9737 77.2171 29.8305 76.5 29.1046C75.6314 28.304 74.2728 28.4564 73.2907 28.9523C73.708 29.486 74.0477 30.2487 73.6692 30.897C73.3296 31.5084 72.3475 31.5452 71.9321 30.9746C71.6313 30.4778 71.6682 29.8295 72.0078 29.3715C72.3475 28.8377 72.8764 28.5699 73.3664 28.2652ZM75.1423 33.1474C74.5746 33.3386 74.0089 33.5666 73.5925 33.9868C73.1025 34.4818 73.0646 35.3212 73.3664 35.9316C73.5557 36.313 73.971 36.543 74.3854 36.6177C75.2918 36.8089 76.2738 36.4275 76.9153 35.7414C76.99 35.6259 77.1414 35.5502 77.1036 35.36V32.5749C76.4243 32.766 75.7838 32.9562 75.1413 33.1474H75.1423ZM51.5483 24.6804H57.5125C58.6829 24.6804 59.9658 24.8706 60.9478 25.5577C61.666 26.0536 62.0803 26.892 62.0803 27.7703C62.1192 28.5321 61.7795 29.2958 61.2118 29.7907C60.7208 30.2866 60.1172 30.5913 59.5135 30.8213C60.5325 31.0494 61.5136 31.5452 62.1182 32.4235C62.7218 33.2998 62.7975 34.4818 62.3821 35.4357C62.1182 36.0839 61.5515 36.6177 60.91 36.9234C60.0036 37.3814 58.9847 37.5347 57.9657 37.5347H51.5492V36.8845C52.0781 36.771 52.6439 36.771 53.1349 36.542C53.3232 36.4653 53.2853 36.2373 53.2853 36.0839V27.2356C53.2485 26.7018 53.361 26.1681 53.2485 25.6344C52.7574 25.3287 52.116 25.3665 51.5502 25.2142V24.6804H51.5483ZM55.4358 25.5577V30.5913C56.4936 30.5535 57.5882 30.7078 58.6072 30.2866C59.2486 30.0197 59.7397 29.4093 59.891 28.7242C60.0415 27.9217 60.0036 27.0075 59.5135 26.3204C59.0604 25.71 58.2297 25.481 57.4757 25.4422C56.7963 25.3665 56.117 25.3665 55.4358 25.5587V25.5577ZM55.4358 31.2784V36.6943C56.5324 36.8845 57.6629 36.9612 58.7207 36.6565C59.7018 36.3518 60.3064 35.36 60.3442 34.3304C60.4568 33.3764 60.0046 32.3847 59.1739 31.8888C58.0793 31.1639 56.7197 31.2405 55.4358 31.2784ZM97.9028 23.3073C99.111 23.1539 100.319 22.8492 101.564 22.8492C101.338 25.1375 101.451 27.4267 101.414 29.715V36.1606C101.414 36.313 101.376 36.542 101.564 36.6177C101.98 36.8089 102.433 36.8467 102.848 36.9234V37.3814C101.753 37.5338 100.659 37.724 99.5632 37.8763V36.1228C99.111 36.771 98.4695 37.2659 97.7514 37.5338C96.3938 38.0297 94.7702 37.724 93.7503 36.6565C92.8449 35.7035 92.4674 34.4061 92.3917 33.1096C92.2782 31.7743 92.6557 30.3633 93.4864 29.2958C94.2792 28.2652 95.4864 27.5791 96.8081 27.5024C97.7892 27.3879 98.847 27.6936 99.5642 28.4185V24.8328C99.5263 24.6047 99.5642 24.2612 99.3371 24.1079C98.8839 23.8788 98.3938 23.8032 97.9028 23.6518V23.3073ZM96.8838 28.5321C96.091 28.7232 95.4495 29.2958 95.0342 29.9819C94.4306 31.0494 94.317 32.3468 94.4675 33.5288C94.581 34.4061 94.9207 35.36 95.6757 35.8937C96.6189 36.6177 98.0163 36.7332 98.9974 36.0461C99.2245 35.8559 99.602 35.7035 99.5632 35.36V28.9901C98.7713 28.5321 97.7892 28.304 96.8848 28.5321H96.8838ZM106.132 27.9605C107.34 27.3501 108.85 27.4267 110.057 28.075C110.133 27.8838 110.209 27.7315 110.284 27.5412H110.812V30.7068H110.247C110.095 29.9052 109.907 28.9134 109.076 28.4942C108.321 27.9993 107.151 28.1128 106.585 28.8377C106.17 29.3715 106.17 30.1342 106.396 30.7825C106.661 31.4307 107.378 31.5831 107.944 31.8121C108.585 32.08 109.265 32.2702 109.869 32.6515C110.473 32.9951 110.964 33.5667 111.152 34.2149C111.379 35.131 111.114 36.1985 110.397 36.8467C109.605 37.5716 108.473 37.8385 107.416 37.8006C106.623 37.7628 105.83 37.6483 105.151 37.2669C105.075 37.4571 104.962 37.6483 104.886 37.8395H104.358L104.245 34.177H104.773C105.037 34.9398 105.263 35.7414 105.755 36.3896C106.473 37.1145 107.717 37.3426 108.623 36.8467C109.642 36.313 109.605 34.5206 108.547 34.0247C107.453 33.491 106.132 33.2998 105.226 32.4235C104.508 31.7743 104.246 30.668 104.546 29.7529C104.773 28.9134 105.415 28.304 106.132 27.9605ZM84.2003 29.6393C84.6914 28.6466 85.5977 27.8071 86.6914 27.6169C87.7104 27.4267 88.8807 27.6169 89.6357 28.3419C90.315 28.9901 90.5799 29.944 90.5799 30.8591V36.2751C90.5799 36.4275 90.5799 36.5798 90.6925 36.6943C91.1098 36.9234 91.5989 36.8845 91.9764 37.0757V37.5716H87.2581V37.0379C87.7104 36.9234 88.2014 36.8467 88.6556 36.6565C88.7303 36.5032 88.6915 36.313 88.6915 36.1228V31.1639C88.6546 30.3633 88.4663 29.3715 87.7113 28.9523C86.6924 28.4185 85.3707 28.7232 84.6157 29.5617C84.3886 29.8295 84.0868 30.1731 84.1246 30.5535C84.1634 32.537 84.0868 34.5584 84.1634 36.542C84.54 36.8467 85.0688 36.8089 85.522 36.9612V37.4571H80.8407V36.9234C81.2939 36.771 81.8985 36.8089 82.2381 36.4284C82.275 34.2159 82.2381 32.0033 82.275 29.7907C82.275 29.486 82.3138 29.1046 82.0489 28.9134C81.7092 28.6844 81.256 28.5321 80.8785 28.3797V27.9217C81.9732 27.7315 83.0688 27.3501 84.1625 27.3501C84.1625 28.2273 84.1625 28.9134 84.2013 29.6383L84.2003 29.6393ZM63.7786 28.1128C64.8732 27.9217 65.93 27.5403 67.0625 27.5403V29.7529C67.3643 28.9523 67.9311 28.1885 68.6861 27.8071C69.1771 27.5403 69.7807 27.4267 70.3096 27.6936C70.6881 27.8838 70.9889 28.2662 70.9132 28.6844C70.8753 29.257 70.4222 29.715 69.9331 29.9819C69.7807 29.6772 69.5546 29.3336 69.1771 29.256C68.5347 29.1425 67.9311 29.4481 67.441 29.8674C67.2518 30.0197 67.0625 30.2099 67.0625 30.4787V36.5032C67.2139 36.5808 67.3265 36.6943 67.4779 36.7332C68.0446 36.8467 68.6104 36.9234 69.1771 36.9991V37.4959H63.9669C63.6282 37.5716 63.7417 37.1902 63.7029 36.9991C64.1561 36.8467 64.7218 36.8467 65.1003 36.543C65.176 34.3304 65.1003 32.08 65.1391 29.8674C65.1391 29.6005 65.176 29.256 64.9489 29.0658C64.5714 28.7999 64.1182 28.6466 63.7029 28.4942C63.7786 28.4185 63.7786 28.2652 63.7786 28.1128ZM125.876 9.37868C126.818 9.22924 127.834 9.30396 128.7 9.71542C129.528 10.1259 129.905 11.0973 129.942 11.9571V16.8888C129.942 17.2993 129.979 17.7108 130.093 18.1213C130.582 18.2707 131.109 18.3086 131.636 18.3086V18.7191C130.846 19.1305 129.905 19.4663 129.001 19.2053C128.4 18.9821 128.172 18.3086 128.136 17.7108C127.194 19.2441 124.973 19.7293 123.429 18.9064C122.488 18.3833 122.149 17.113 122.526 16.1038C122.864 15.3197 123.655 14.8713 124.407 14.5724C125.612 14.0872 126.893 13.8252 128.136 13.4885C128.136 12.7412 128.21 11.9571 127.909 11.2468C127.683 10.7247 127.231 10.3879 126.667 10.2385C125.875 10.0512 125.048 10.2006 124.332 10.5374C124.672 11.0226 125.012 11.5835 124.822 12.1813C124.671 12.8538 123.805 13.1158 123.241 12.7791C122.864 12.5559 122.752 12.0687 122.788 11.6951C122.827 11.172 123.203 10.7247 123.655 10.4248C124.296 10.0133 125.011 9.49125 125.875 9.37868H125.876ZM126.517 14.684C125.839 14.8713 125.123 15.0955 124.596 15.5817C124.069 16.0669 123.995 16.9257 124.332 17.5235C124.559 17.935 125.048 18.1591 125.5 18.197C126.328 18.3086 127.194 17.9738 127.796 17.3741C127.909 17.2246 128.097 17.113 128.06 16.9257V14.2357C127.57 14.3851 127.044 14.5365 126.517 14.684ZM147.035 9.37868C148.39 9.11764 149.896 9.37868 151.025 10.2385C151.966 10.9479 152.568 12.0318 152.757 13.1896C153.02 14.6093 152.794 16.1416 151.966 17.3372C151.25 18.3833 150.084 19.1305 148.842 19.28C147.486 19.4663 146.056 19.2053 144.964 18.3455C144.097 17.6729 143.496 16.6278 143.307 15.5817C143.043 14.1988 143.195 12.6665 143.985 11.4341C144.662 10.3879 145.792 9.60382 147.035 9.37868ZM147.712 10.0512C147.223 10.1259 146.733 10.352 146.356 10.7247C145.717 11.3593 145.454 12.2191 145.34 13.078C145.19 14.3104 145.227 15.5817 145.717 16.7394C145.98 17.4119 146.432 18.0844 147.109 18.4202C148.013 18.9064 149.255 18.6443 149.896 17.8224C150.611 16.9636 150.761 15.8427 150.837 14.7597C150.912 13.4516 150.724 12.0687 149.932 11.0236C149.406 10.3511 148.541 9.93959 147.712 10.0512ZM105.283 9.52813C106.375 9.15451 107.655 9.19236 108.709 9.67757C109.575 10.089 110.215 10.911 110.365 11.8455C110.516 12.4423 110.404 13.078 110.289 13.6757C108.219 13.6379 106.149 13.5641 104.079 13.5263C104.04 14.7597 104.191 16.1038 105.057 17.0761C106.412 18.458 108.972 18.3086 110.139 16.7394C110.215 16.7763 110.327 16.8888 110.365 16.9257C109.989 17.6729 109.463 18.3833 108.709 18.8316C107.729 19.3916 106.525 19.5041 105.395 19.2431C104.115 18.9442 103.099 17.8971 102.61 16.7015C102.009 15.1702 102.009 13.3769 102.722 11.8824C103.174 10.7984 104.115 9.90271 105.284 9.52813H105.283ZM105.283 10.4995C104.53 11.0973 104.191 12.0328 104.078 12.9285C105.509 12.8538 106.976 12.8169 108.407 12.7412C108.596 11.9193 108.446 10.911 107.768 10.3511C107.052 9.82702 105.998 9.97647 105.284 10.4995H105.283ZM68.8394 9.41653C70.2329 9.07979 71.8138 9.30396 72.9812 10.1638C73.9225 10.8363 74.5242 11.8455 74.7503 12.9654C75.0511 14.3851 74.8628 15.9553 74.0729 17.1877C73.3946 18.2707 72.2291 19.0558 70.9481 19.2431C69.706 19.4294 68.3881 19.2431 67.2964 18.5706C66.3172 17.935 65.6399 16.8888 65.3759 15.768C65.0372 14.3851 65.1498 12.8907 65.865 11.6204C66.5055 10.5374 67.5972 9.71542 68.8394 9.4175V9.41653ZM69.706 10.0512C69.0655 10.1259 68.4638 10.4995 68.0863 11.0226C67.5235 11.8086 67.3333 12.7791 67.2586 13.7505C67.1829 14.9829 67.3711 16.2542 67.9738 17.3372C68.3503 17.9728 68.9151 18.4959 69.6672 18.6084C70.5338 18.7569 71.4372 18.4202 71.9642 17.7108C72.6415 16.7763 72.7929 15.5438 72.8298 14.423C72.8298 13.1905 72.6047 11.9193 71.8516 10.9488C71.3625 10.3122 70.5338 9.93959 69.7069 10.0512H69.706ZM153.698 9.86487C154.789 9.67757 155.844 9.26708 156.974 9.30396V11.3225C157.463 10.4627 158.216 9.67757 159.232 9.41653C160.249 9.19333 161.378 9.30396 162.243 9.94056C163.034 10.4995 163.374 11.5088 163.374 12.4423V18.0844C163.336 18.2339 163.486 18.3086 163.637 18.3833C164.013 18.4959 164.39 18.5706 164.766 18.6822V19.1674H160.06V18.6822C160.512 18.5327 161.04 18.5327 161.491 18.3086C161.566 16.9636 161.491 15.6185 161.53 14.2735C161.491 13.3031 161.642 12.256 161.152 11.3962C160.852 10.8363 160.173 10.5374 159.533 10.5374C158.479 10.4995 157.388 11.1352 157.011 12.1056C157.011 14.1241 156.974 16.1785 157.011 18.197C157.35 18.5706 157.953 18.4959 158.366 18.6443V19.1305H153.699V18.6453C154.188 18.4959 154.677 18.4959 155.128 18.197V11.2856C155.128 11.0983 155.053 10.912 154.903 10.8004C154.526 10.5752 154.112 10.4258 153.735 10.2763C153.698 10.1269 153.698 9.97744 153.698 9.86584V9.86487ZM140.634 9.34181C140.898 9.26708 141.199 9.30396 141.499 9.30396V17.8243C141.499 17.9728 141.462 18.2707 141.689 18.3095C142.102 18.4202 142.516 18.4959 142.894 18.6075V19.0927H138.187V18.6075C138.639 18.4202 139.279 18.4959 139.618 18.1223C139.656 15.9553 139.618 13.7873 139.656 11.6204C139.656 11.3593 139.73 10.9847 139.429 10.8363C139.053 10.5743 138.639 10.4627 138.224 10.3122V9.86584C138.977 9.67757 139.806 9.49125 140.634 9.34181ZM93.8377 9.30396H94.3646V12.4423H93.8377C93.7251 11.8455 93.5756 11.2846 93.2729 10.7615C92.6712 10.0143 91.4659 9.71542 90.6003 10.2763C89.5454 10.8731 89.5454 12.7043 90.7129 13.1896C91.6163 13.601 92.5955 13.8621 93.4611 14.3104C94.1016 14.684 94.6286 15.2818 94.779 15.9922C94.9672 16.8888 94.6286 17.8971 93.9124 18.4959C93.0468 19.2431 91.8803 19.4294 90.7507 19.3547C90.0355 19.3178 89.3581 19.1674 88.7177 18.8316C88.642 19.018 88.5294 19.2053 88.4537 19.3557H87.9268L87.8142 15.768H88.379C88.6051 16.5152 88.8681 17.2625 89.2825 17.8971C90.0355 18.6832 91.3902 18.9064 92.2937 18.2707C92.973 17.8243 93.0099 16.851 92.7081 16.1785C92.4461 15.6185 91.8056 15.4701 91.2777 15.2818C90.3752 14.9082 89.395 14.684 88.7177 13.9368C88.0772 13.3021 87.8889 12.3307 88.116 11.5088C88.3033 10.7615 88.8681 10.1259 89.5454 9.7523C90.7886 9.07979 92.3316 9.11764 93.5747 9.79111C93.6494 9.6407 93.7629 9.45341 93.8377 9.30396ZM75.7294 9.82799C76.8212 9.6407 77.8751 9.26708 79.0046 9.26708V11.2856C79.4937 10.4248 80.2468 9.6407 81.2638 9.37868C82.2798 9.11764 83.4841 9.26708 84.3129 9.93959C85.0281 10.4995 85.3668 11.3962 85.4046 12.2939C85.4434 14.2357 85.3668 16.2154 85.4434 18.1591C85.819 18.458 86.3848 18.458 86.835 18.6075V19.0927H82.1294V18.6075C82.5807 18.458 83.0707 18.4202 83.522 18.2339C83.5967 18.0107 83.5608 17.7855 83.5608 17.5613V12.8169C83.522 12.0318 83.3337 11.1352 82.6195 10.7247C81.5646 10.1638 80.1352 10.4995 79.418 11.3962C79.2298 11.6582 79.0046 11.9202 79.0425 12.256V18.1591C79.4559 18.4211 79.946 18.458 80.4351 18.5706V19.0558H75.7673V18.5706C76.2176 18.4202 76.7833 18.458 77.1977 18.1213C77.2346 15.9553 77.1977 13.7505 77.2346 11.5835C77.2346 11.3225 77.2734 10.9847 77.0463 10.7984C76.6698 10.5364 76.2564 10.4248 75.843 10.2385C75.7294 10.1259 75.7294 9.97647 75.7294 9.82702V9.82799ZM132.616 9.41653C133.029 8.6693 133.292 7.88422 133.594 7.06226H134.272V9.79111H137.17V10.7256H134.272V16.5531C134.272 17.114 134.422 17.7865 134.988 18.0485C135.852 18.3843 136.907 18.1979 137.585 17.5633C137.623 17.637 137.735 17.7496 137.773 17.8253C137.284 18.6084 136.455 19.2062 135.552 19.3198C134.724 19.4304 133.819 19.3198 133.18 18.7579C132.653 18.3095 132.465 17.5992 132.465 16.9267V10.7615H131.335V10.0512C131.749 9.86487 132.276 9.7523 132.616 9.41653ZM97.9426 7.06226H98.619V9.79111H101.518V10.7256H98.619V16.3289C98.619 16.8151 98.6578 17.3381 98.9586 17.7496C99.2963 18.1601 99.8999 18.1979 100.389 18.1979C100.954 18.1979 101.48 17.9359 101.894 17.5623C101.933 17.637 102.045 17.7496 102.12 17.8243C101.706 18.5337 100.991 19.0568 100.2 19.2441C99.3342 19.4304 98.3181 19.3557 97.6029 18.7957C97.0381 18.3464 96.812 17.5992 96.812 16.9267V10.7615H95.6824V10.0512C96.1347 9.86487 96.6238 9.7523 97.0003 9.41653C97.3768 8.70617 97.6408 7.88422 97.9416 7.06226H97.9426ZM53.4028 8.51985C54.6071 7.10011 56.4897 6.27816 58.3345 6.16656C59.728 6.09087 61.1206 6.20343 62.4006 6.76337C62.5132 6.61393 62.6645 6.4276 62.7771 6.27816H63.2293C63.304 7.73477 63.4176 9.19236 63.4923 10.6868H62.9275C62.7393 9.79014 62.5131 8.89347 62.1366 8.10839C61.9484 7.66199 61.4593 7.47373 61.0459 7.24859C59.8784 6.76337 58.5616 6.7265 57.3941 7.10011C56.2636 7.47373 55.398 8.33256 54.9467 9.37868C54.2315 10.9479 54.1558 12.7791 54.4566 14.4599C54.7584 15.9931 55.5862 17.5235 57.0166 18.2348C58.3723 18.9442 60.0667 18.6075 61.3467 17.935C61.6863 17.7855 61.8358 17.4119 62.0241 17.113C62.4006 16.3658 62.7014 15.6185 62.9275 14.8344H63.5302C63.3041 16.1038 63.0401 17.3381 62.8149 18.6075C61.6116 19.1315 60.2928 19.3178 59.0128 19.3547C57.2806 19.4294 55.4736 18.9811 54.118 17.8602C51.4075 15.6185 51.1067 11.1352 53.4028 8.51985ZM140.219 4.74682C140.935 4.4848 141.724 5.11946 141.762 5.82885C141.876 6.57705 141.198 7.36213 140.407 7.24859C139.692 7.17483 139.24 6.4276 139.354 5.7551C139.466 5.30676 139.767 4.8953 140.219 4.74682ZM118.232 4.93314C118.873 4.82057 119.55 4.63328 120.228 4.6721C120.002 7.28643 120.153 9.90271 120.115 12.4802V17.8971C120.115 18.0475 120.154 18.1979 120.303 18.2339C120.68 18.3833 121.132 18.458 121.508 18.5706V19.0558H116.84V18.5706C117.291 18.3833 117.894 18.458 118.232 18.0854C118.271 14.4599 118.232 10.7984 118.271 7.17484C118.232 6.8381 118.308 6.50233 118.158 6.20441C117.857 5.8667 117.405 5.82885 117.028 5.60565C116.84 5.5678 116.914 5.30676 116.914 5.15731C117.33 5.08259 117.781 5.04571 118.232 4.93411V4.93314ZM111.005 5.19516C112.134 5.04571 113.225 4.6721 114.354 4.70994C114.204 6.16656 114.242 7.66102 114.242 9.15451V17.8602C114.242 18.0097 114.204 18.2339 114.392 18.3086C114.769 18.4959 115.221 18.5327 115.635 18.6443V19.1305H110.929V18.6453C111.381 18.458 111.983 18.5327 112.322 18.1601C112.359 14.3483 112.322 10.4995 112.322 6.65177C112.359 5.94142 111.494 5.8667 111.005 5.60565V5.19419V5.19516Z" fill="black"/>
</svg>
