<svg width="134" height="26" viewBox="0 0 134 26" fill="none" xmlns="http://www.w3.org/2000/svg">
<path fill-rule="evenodd" clip-rule="evenodd" d="M9.36547 20.2735C12.3214 20.026 15.7664 18.2026 15.7664 12.7391C15.7664 7.50455 12.1001 5.23666 8.66093 5.23666C8.10973 5.23666 7.28584 5.27645 6.63662 5.33467C6.63662 5.33467 6.63953 20.3006 6.63662 20.3026H8.51343C8.79777 20.3026 9.0821 20.2939 9.36644 20.2735H9.36547ZM0.806274 25.1256V0.621293C3.11299 0.424296 5.19068 0.34375 7.52747 0.34375C16.633 0.34375 21.9092 4.79414 21.9092 12.74C21.9092 19.1022 18.0974 24.6113 8.93363 25.0926C8.50373 25.114 7.95543 25.1256 7.50224 25.1256H0.806274ZM97.0923 2.23706L102.886 1.57426V7.12512H106.711V11.5794H102.887V17.9367C102.887 18.9275 103.144 19.5379 103.506 19.9125C104.011 20.4375 104.717 20.4976 105.193 20.4976C105.683 20.4976 107.025 20.2686 107.215 20.2026C107.215 20.2201 107.262 24.9092 107.258 24.9141C106.965 25.0101 106.3 25.1489 105.549 25.2644C104.737 25.3886 103.856 25.4692 103.077 25.4692C98.9167 25.4692 97.0923 22.9916 97.0923 18.942V11.5794H94.8196V7.12512H97.0923V2.23706ZM83.4044 2.23706L89.196 1.57426V7.12512H93.0194V11.5794H89.196V17.9367C89.196 18.9275 89.4541 19.5379 89.8141 19.9125C90.3187 20.4375 91.0272 20.4976 91.5027 20.4976C91.9947 20.4976 93.3348 20.2686 93.525 20.2026C93.525 20.2201 93.5736 24.9092 93.5697 24.9141C93.2776 25.0101 92.6109 25.1489 91.8598 25.2644C91.0495 25.3886 90.1683 25.4692 89.3871 25.4692C85.2259 25.4692 83.4044 22.9916 83.4044 18.942V11.5794H81.1307V7.12512H83.4044V2.23706ZM72.8015 5.41813H78.7182V0.752301H72.8015V5.41813ZM72.8015 25.0994H78.7182V7.12706H72.8015V25.0994ZM60.9399 25.4837C55.5676 25.4837 51.8014 21.7427 51.8024 16.2345C51.8024 11.8443 54.3206 6.73306 61.2291 6.73306C67.9377 6.73306 70.2299 12.0073 70.2299 15.9347C70.2299 22.5307 65.5553 25.4837 60.9399 25.4837ZM61.0176 21.0256C62.8944 21.0256 64.123 19.0837 64.123 16.0861C64.123 13.8269 63.3156 11.1961 61.0389 11.1961C58.6798 11.1961 57.8336 13.7347 57.8336 16.1113C57.8336 19.0963 59.0952 21.0256 61.0185 21.0256H61.0176ZM43.2199 25.0994H49.1366V0.743567H43.2199V25.0994ZM123.228 20.1832L124.106 24.3124C123.272 24.6918 122.285 24.9898 121.389 25.1761C120.525 25.3537 119.481 25.4837 118.05 25.4837C112.434 25.4837 108.412 22.1406 108.412 16.2966C108.412 11.2271 111.435 6.70298 117.117 6.70298C122.964 6.70298 125.255 10.9971 125.255 15.6775C125.255 16.6839 125.113 17.6397 125.031 18.0357H114.12C114.448 20.0949 116.45 20.9596 119.007 20.9596C119.799 20.9596 120.577 20.8742 121.33 20.7199C121.97 20.586 122.611 20.3948 123.228 20.1832ZM117.017 10.8991C115.071 10.8991 114.004 12.4479 114.004 14.0074H119.832C119.832 12.906 119.178 10.8991 117.017 10.8991ZM38.5191 20.1832L39.3983 24.3124C38.5638 24.6918 37.5768 24.9898 36.6811 25.1761C35.8174 25.3537 34.7733 25.4837 33.3419 25.4837C27.726 25.4837 23.7026 22.1406 23.7026 16.2966C23.7026 11.2271 26.7274 6.70298 32.4074 6.70298C38.2561 6.70298 40.5473 10.9971 40.5473 15.6775C40.5473 16.6839 40.4047 17.6397 40.3232 18.0357H29.4097C29.7377 20.0949 31.7416 20.9596 34.2978 20.9596C35.0896 20.9596 35.8689 20.8742 36.621 20.7199C37.2614 20.586 37.9019 20.3948 38.5182 20.1832H38.5191ZM32.3084 10.8991C30.3627 10.8991 29.2952 12.4479 29.2952 14.0074H35.1246C35.1246 12.906 34.4705 10.8991 32.3084 10.8991ZM127.134 22.1639C127.135 20.9761 127.76 19.8795 128.771 19.2856C129.784 18.6936 131.032 18.6936 132.044 19.2865C133.057 19.8804 133.679 20.979 133.679 22.1668C133.679 24.0028 132.212 25.4905 130.405 25.4895C128.598 25.4895 127.135 23.9999 127.135 22.1639" fill="black"/>
</svg>
