<svg width="24" height="24" viewBox="0 0 24 24" fill="none" xmlns="http://www.w3.org/2000/svg">
<path d="M13.1085 8.2987V8.1174L12.545 8.1561C12.3854 8.16617 12.2656 8.2001 12.185 8.25735C12.1044 8.31513 12.0641 8.39518 12.0641 8.49749C12.0641 8.59716 12.1039 8.67667 12.184 8.73552C12.2635 8.79489 12.3706 8.82405 12.5041 8.82405C12.5895 8.82405 12.6695 8.81079 12.7432 8.78482C12.8169 8.75884 12.8816 8.72227 12.9357 8.67561C12.9897 8.62949 13.0321 8.57436 13.0624 8.51022C13.0931 8.44607 13.1085 8.37557 13.1085 8.2987ZM12 1C5.86173 1 1 5.86173 1 12C1 18.1388 5.86173 23 12 23C18.1383 23 23 18.1388 23 12C23 5.86173 18.1388 1 12 1ZM14.1353 7.51995C14.1873 7.37417 14.2604 7.24906 14.3553 7.14516C14.4502 7.04125 14.5642 6.96121 14.6978 6.90501C14.8314 6.84882 14.9803 6.82072 15.1441 6.82072C15.292 6.82072 15.4256 6.84299 15.5444 6.88699C15.6637 6.93099 15.7654 6.99036 15.8508 7.06511C15.9361 7.13986 16.004 7.2268 16.0538 7.32646C16.1037 7.42612 16.1333 7.53161 16.1434 7.64241H15.7018C15.6907 7.58145 15.6706 7.52419 15.6419 7.47171C15.6133 7.41923 15.5757 7.37364 15.529 7.33494C15.4818 7.29624 15.4267 7.26602 15.3636 7.24429C15.3 7.22202 15.229 7.21142 15.1489 7.21142C15.0551 7.21142 14.9697 7.23051 14.8939 7.26814C14.8176 7.30578 14.7524 7.35932 14.6983 7.42824C14.6442 7.49716 14.6024 7.58145 14.5727 7.68005C14.5425 7.77918 14.5276 7.88892 14.5276 8.00978C14.5276 8.13489 14.5425 8.24728 14.5727 8.34588C14.6024 8.44501 14.6448 8.52824 14.6999 8.59663C14.7545 8.66501 14.8208 8.71749 14.8976 8.75354C14.9745 8.78959 15.0593 8.80814 15.1516 8.80814C15.3027 8.80814 15.4256 8.77263 15.5211 8.70159C15.6165 8.63055 15.678 8.52665 15.7066 8.38988H16.1487C16.136 8.51075 16.1026 8.62101 16.0485 8.72067C15.9945 8.82034 15.9245 8.90516 15.8386 8.97566C15.7522 9.04617 15.6509 9.10077 15.5343 9.13894C15.4177 9.17711 15.2894 9.19672 15.15 9.19672C14.9846 9.19672 14.8356 9.16916 14.7015 9.11455C14.5679 9.05995 14.4529 8.98096 14.3574 8.87865C14.262 8.77634 14.1883 8.65176 14.1364 8.50492C14.0844 8.35807 14.0585 8.1932 14.0585 8.00925C14.0574 7.82954 14.0834 7.66627 14.1353 7.51995ZM7.85181 6.85094H8.29393V7.24376H8.30241C8.32945 7.17855 8.36496 7.11971 8.40843 7.06882C8.4519 7.0174 8.50174 6.97393 8.55899 6.93735C8.61571 6.90077 8.6788 6.8732 8.74665 6.85412C8.81504 6.83504 8.88713 6.82549 8.96241 6.82549C9.12463 6.82549 9.26193 6.86419 9.37325 6.94159C9.48511 7.01899 9.56463 7.13031 9.61128 7.27557H9.62241C9.6521 7.20559 9.69133 7.14304 9.73957 7.0879C9.78781 7.03277 9.84347 6.98506 9.90602 6.94583C9.96858 6.9066 10.0375 6.87692 10.1122 6.85624C10.187 6.83557 10.2654 6.82549 10.3481 6.82549C10.4621 6.82549 10.5655 6.84352 10.6588 6.8801C10.7521 6.91667 10.8316 6.96757 10.8979 7.03383C10.9641 7.1001 11.015 7.18067 11.0506 7.27504C11.0861 7.3694 11.1041 7.47436 11.1041 7.58993V9.17022H10.6429V7.70072C10.6429 7.54858 10.6037 7.43036 10.5252 7.34713C10.4473 7.2639 10.3354 7.22202 10.1902 7.22202C10.1191 7.22202 10.0539 7.23475 9.99455 7.25966C9.93571 7.28458 9.88429 7.31957 9.84188 7.36463C9.79894 7.40916 9.76554 7.46323 9.74169 7.52578C9.7173 7.58834 9.70511 7.65672 9.70511 7.73094V9.17022H9.25027V7.66255C9.25027 7.59576 9.23966 7.53533 9.21899 7.48125C9.19831 7.42718 9.16916 7.38106 9.13046 7.34236C9.09229 7.30366 9.04511 7.27451 8.99051 7.25383C8.93537 7.23316 8.87388 7.22255 8.80549 7.22255C8.73446 7.22255 8.66872 7.23581 8.60776 7.26231C8.54733 7.28882 8.49537 7.3254 8.4519 7.37205C8.40843 7.41923 8.37451 7.47436 8.35065 7.53851C8.32733 7.60212 8.28916 7.6721 8.28916 7.74737V9.16969H7.85181V6.85094ZM8.85533 17.9511C6.82761 17.9511 5.55586 16.5421 5.55586 14.2933C5.55586 12.0445 6.82761 10.6307 8.85533 10.6307C10.883 10.6307 12.15 12.0445 12.15 14.2933C12.15 16.5415 10.883 17.9511 8.85533 17.9511ZM12.6096 9.16438C12.5349 9.18347 12.4586 9.19301 12.3801 9.19301C12.2645 9.19301 12.159 9.17658 12.0631 9.14371C11.9666 9.11084 11.8844 9.06472 11.8155 9.00482C11.7466 8.94492 11.6925 8.87282 11.6544 8.788C11.6157 8.70318 11.5966 8.60882 11.5966 8.50492C11.5966 8.30135 11.6724 8.14231 11.824 8.02781C11.9756 7.9133 12.1951 7.84651 12.4829 7.82795L13.1085 7.7919V7.61272C13.1085 7.47913 13.0661 7.37682 12.9813 7.30737C12.8964 7.23793 12.7766 7.20294 12.6213 7.20294C12.5587 7.20294 12.4999 7.21089 12.4458 7.22627C12.3918 7.24217 12.344 7.26443 12.3027 7.29359C12.2613 7.32275 12.2269 7.35773 12.2004 7.39855C12.1733 7.43884 12.1548 7.48443 12.1447 7.53427H11.7111C11.7137 7.43195 11.7392 7.33706 11.7869 7.25012C11.8346 7.16318 11.8993 7.0879 11.9814 7.02376C12.0636 6.95962 12.1596 6.90978 12.2709 6.87426C12.3822 6.83875 12.5031 6.82072 12.634 6.82072C12.775 6.82072 12.9028 6.83822 13.0173 6.87426C13.1318 6.91031 13.2299 6.96067 13.311 7.02694C13.3921 7.0932 13.4547 7.17272 13.4987 7.26602C13.5427 7.35933 13.5649 7.46376 13.5649 7.5788V9.16969H13.1233V8.78323H13.1122C13.0793 8.84578 13.038 8.90251 12.9876 8.95287C12.9367 9.00323 12.88 9.0467 12.8169 9.08222C12.7533 9.11773 12.6844 9.1453 12.6096 9.16438ZM15.5269 17.9511C13.9805 17.9511 12.9293 17.1411 12.8561 15.8693H13.8628C13.9413 16.5961 14.6437 17.0775 15.6059 17.0775C16.5288 17.0775 17.192 16.5961 17.192 15.9383C17.192 15.3689 16.7891 15.0249 15.8566 14.7895L14.948 14.5637C13.6418 14.2398 13.048 13.6455 13.048 12.6685C13.048 11.4656 14.0987 10.6307 15.5963 10.6307C17.0595 10.6307 18.0805 11.4704 18.1197 12.678H17.1231C17.0542 11.9512 16.4604 11.5043 15.5762 11.5043C14.6973 11.5043 14.0887 11.956 14.0887 12.6091C14.0887 13.1244 14.4714 13.4292 15.4044 13.6646L16.1705 13.856C17.6288 14.2095 18.2279 14.7842 18.2279 15.8153C18.2273 17.131 17.1867 17.9511 15.5269 17.9511ZM8.85533 11.5335C7.46588 11.5335 6.59701 12.599 6.59701 14.2928C6.59701 15.9817 7.46588 17.0473 8.85533 17.0473C10.24 17.0473 11.1136 15.9817 11.1136 14.2928C11.1142 12.599 10.24 11.5335 8.85533 11.5335Z" fill="black"/>
</svg>
