<svg width="148" height="25" viewBox="0 0 148 25" fill="none" xmlns="http://www.w3.org/2000/svg">
<path fill-rule="evenodd" clip-rule="evenodd" d="M102.993 8.89977H109.099C109.024 4.66578 105.493 0.623946 97.2914 0.547282C91.1864 0.509435 83.7927 3.10339 83.7539 12.5981C83.718 22.018 91.2592 24.9546 97.2914 24.8022C102.845 24.611 109.024 23.0098 109.283 15.9169L103.139 15.9558C102.955 20.3809 99.535 21.2563 97.2924 21.2931C94.973 21.2931 90.2276 20.7992 90.1578 12.7145C90.084 5.08695 94.4228 4.01948 97.2924 4.01948C100.123 4.05636 102.956 5.43048 102.993 8.89977ZM76.0672 19.0815L78.1283 24.3073H84.8602L74.2311 1.00532H66.6889L55.987 24.3073H62.68L64.7762 19.0815H76.0672ZM66.2843 15.3822L70.4416 4.9705L74.5611 15.3832H66.2843V15.3822ZM37.706 0.967476H61.1361V4.85696H52.3829V24.3073H46.4603V4.85599H37.707V0.966514L37.706 0.967476ZM141.024 24.3063H147.056V0.967476H141.024V24.3063ZM29.4671 24.3063H35.5002V0.967476H29.4671V24.3063ZM0.521118 0.968454H6.47957V10.3117H18.544V0.968454H24.5393V24.3073H18.544V14.011H6.47957V24.3073H0.521118V0.968454ZM112.226 0.968454H118.182V10.3117H130.247V0.968454H136.205V24.3073H130.247V14.011H118.182V24.3073H112.226V0.968454Z" fill="black"/>
</svg>
