<svg width="168" height="23" viewBox="0 0 168 23" fill="none" xmlns="http://www.w3.org/2000/svg">
<path fill-rule="evenodd" clip-rule="evenodd" d="M22.6393 22.5803C20.845 22.0514 19.0002 20.0824 18.3878 18.0445C18.0394 16.8858 17.857 14.5403 17.8638 11.2214C17.8735 5.36489 18.4402 3.57833 20.8469 1.81021C23.2565 0.0401435 28.2144 0.0983678 30.4638 1.92084C32.4639 3.54242 33.1413 5.56965 33.3412 10.5431C33.6032 17.0974 32.4426 20.6783 29.5953 22.097C28.1513 22.8152 24.3317 23.0801 22.6393 22.5803ZM26.4269 18.4473C27.2003 17.702 27.5273 14.7266 27.3653 9.84828C27.2246 5.58421 26.8655 4.53905 25.5438 4.53905C24.2579 4.53905 23.9067 5.55801 23.7378 9.78132C23.5476 14.6024 23.8756 17.6923 24.6597 18.4473C25.3672 19.1266 25.7194 19.1266 26.4269 18.4473ZM0.791016 11.8037V0.925173H6.05464C13.0796 0.925173 14.5954 1.55595 15.3504 4.78942C15.8298 6.84188 15.3387 9.07776 14.1451 10.2792L13.1553 11.2738L14.082 11.7503C16.25 12.8692 16.8934 17.7573 15.167 19.9873C13.5648 22.0563 12.3644 22.4037 6.32343 22.5473L0.791016 22.6803V11.8037ZM9.41717 17.5457C10.9553 16.061 9.95575 13.2089 7.89649 13.2089H6.79022V15.7388C6.79022 18.1959 6.81835 18.2677 7.72958 18.2677C8.24488 18.2677 9.00377 17.9417 9.41717 17.5457ZM9.10761 8.63815C10.4691 7.44743 9.69084 5.26203 7.90331 5.26203C6.80672 5.26203 6.79022 5.28725 6.79022 7.24752C6.79022 9.0467 6.86882 9.23497 7.60538 9.23497C8.05469 9.23497 8.73011 8.96615 9.10761 8.63815ZM35.5596 22.3765C35.413 22.2358 35.2946 17.3526 35.2946 11.5232V0.92615H39.6072C42.4681 0.92615 43.9198 1.0591 43.9198 1.31917C43.9198 1.67338 45.0659 8.52752 45.6676 11.7649C45.9247 13.1506 45.9092 13.2128 47.4832 4.44784L48.1131 0.92615H56.6819L56.484 22.4212L53.7629 22.5289L51.0457 22.6337L50.9739 7.97049L49.8753 13.3894C49.2717 16.3715 48.5983 19.67 48.3809 20.7239L47.9849 22.6376L45.8791 22.5308L43.7714 22.4202L43.3414 20.0737L42.0081 12.8469L41.1066 7.97049L40.731 22.4202L38.2787 22.5269C36.9298 22.5852 35.7051 22.5172 35.5596 22.3765ZM58.9236 11.8056V0.925173H64.0543C70.0962 0.925173 71.8333 1.45891 72.9163 3.6482C74.1002 6.03837 73.3928 9.79394 71.58 10.7285C70.8483 11.103 70.8522 11.1215 71.6867 11.5271C73.3646 12.3481 74.1099 13.8047 74.1031 16.2531C74.1002 18.0552 73.911 18.7792 73.1802 19.8059C71.6615 21.9447 70.3349 22.3494 64.2649 22.526L58.9236 22.6822V11.8047V11.8056ZM67.2364 17.6699C68.0961 16.9208 68.1544 14.5675 67.3334 13.7775C67.0102 13.4651 66.2494 13.2089 65.6458 13.2089H64.5473V15.7388C64.5473 18.2367 64.5589 18.2677 65.5488 18.2677C66.1 18.2677 66.8598 17.998 67.2364 17.6699ZM67.0966 8.80216C67.6779 8.24222 67.6779 6.25478 67.0966 5.69484C66.8501 5.45709 66.1747 5.26203 65.5963 5.26203C64.5745 5.26203 64.5473 5.31346 64.5473 7.24752C64.5473 9.1845 64.5745 9.23497 65.5963 9.23497C66.1747 9.23497 66.8501 9.03991 67.0966 8.80216ZM74.2991 22.165C74.2991 21.9068 74.467 21.1266 74.6747 20.4318C74.8824 19.737 75.8955 15.6747 76.9261 11.4039C77.9547 7.13205 78.9756 3.02616 79.192 2.28087L79.5851 0.92615H86.9108L87.792 4.44784C88.2801 6.38676 89.4854 11.1273 90.4723 14.9828C91.4622 18.8413 92.1832 22.131 92.0764 22.2999C91.9668 22.4668 90.5558 22.6026 88.9313 22.6026H85.9802L85.3582 18.8083L83.2358 18.7015L81.1116 18.5948L80.7971 20.5075L80.4808 22.4202L77.389 22.5269C75.0503 22.6055 74.2991 22.5192 74.2991 22.164V22.165ZM84.4246 13.8824C84.4246 12.6683 83.5046 7.068 83.3057 7.068C83.1747 7.068 82.8564 8.32762 82.5944 9.86672C82.3314 11.4068 82.0286 13.0342 81.916 13.4796C81.7394 14.2084 81.8578 14.2938 83.0708 14.2938C83.8317 14.2938 84.4246 14.1133 84.4246 13.8824ZM93.6747 22.362C93.5389 22.229 93.4244 17.3526 93.4244 11.5232V0.92615H98.8753C104.858 0.92615 106.413 1.2784 107.499 2.87573C109.156 5.31345 108.914 9.61344 107.04 11.0322L106.107 11.7416L107.167 12.6179C108.173 13.4534 108.232 13.6824 108.418 17.274C108.532 19.4788 108.807 21.2741 109.078 21.5876C109.336 21.8855 109.435 22.2339 109.299 22.3649C108.86 22.7861 103.237 22.6308 102.955 22.1912C102.808 21.9641 102.61 20.2144 102.513 18.3056C102.412 16.3967 102.164 14.6315 101.958 14.3841C101.753 14.1366 101.099 13.9318 100.503 13.9318H99.4274V22.6026H96.6763C95.1624 22.6026 93.8135 22.4959 93.6747 22.362ZM102.052 9.23497C102.948 8.37128 103.032 6.61869 102.211 5.82876C101.889 5.51629 101.129 5.26203 100.522 5.26203H99.4274V7.60949C99.4274 9.87351 99.4604 9.95793 100.363 9.95793C100.879 9.95793 101.639 9.63284 102.051 9.23497H102.052ZM110.926 22.362C110.79 22.229 110.678 17.3526 110.678 11.5232V0.92615H115.683C123.709 0.92615 125.092 1.78303 126.103 7.36883C126.574 9.97346 126.339 15.8242 125.678 18.0057C125.011 20.1989 123.325 21.7642 121.144 22.2145C119.095 22.6385 111.33 22.7501 110.925 22.362H110.926ZM119.471 17.4652C119.932 16.8296 120.053 15.5893 120.053 11.5281C120.053 5.85398 119.839 5.26203 117.776 5.26203H116.676V18.2677H117.782C118.495 18.2677 119.091 17.9844 119.471 17.4652ZM128.302 11.7649V0.925173H134.304V22.6017H128.302V11.7649ZM136.553 11.7649V0.925173H149.679V5.62205H142.555V9.23399H149.306V13.5699H142.555V17.5448H150.055V22.6017H136.553V11.7649ZM151.933 11.7794V0.925173H157.277C161.621 0.927114 162.86 1.04454 163.908 1.55886C165.699 2.44098 166.634 3.82094 166.838 5.91318C167.065 8.15585 166.428 10.0763 165.125 11.0836C164.444 11.6106 164.278 11.9153 164.61 12.0298C166.299 12.6101 166.923 14.4549 166.93 18.8781C166.93 20.3066 167.102 21.5759 167.308 21.6992C168.308 22.294 167.411 22.6017 164.674 22.6017C161.788 22.6017 161.648 22.5638 161.297 21.6739C161.096 21.1635 160.934 19.5303 160.934 18.0377C160.934 14.7693 160.548 13.9309 159.056 13.9309H157.955L157.745 22.4192L154.839 22.526L151.933 22.6327V11.7785V11.7794ZM160.245 9.35917C161.033 8.67308 161.183 6.36929 160.482 5.69484C160.233 5.45709 159.558 5.26203 158.981 5.26203C157.938 5.26203 157.931 5.27852 157.931 7.60949C157.931 9.77938 157.994 9.95793 158.744 9.95793C159.193 9.95793 159.868 9.68912 160.245 9.35917Z" fill="black"/>
</svg>
